<svg xmlns="http://www.w3.org/2000/svg" viewBox="0 0 53.6 95.05"><defs><style>.cls-1,.cls-2,.cls-3,.cls-4{fill:#fff;}.cls-1{fill-rule:evenodd;}.cls-2{font-size:9.09px;}.cls-2,.cls-3{font-family:ArialMT, Arial;}.cls-3{font-size:6.63px;}</style></defs><g id="Layer_2" data-name="Layer 2"><g id="Layer_1-2" data-name="Layer 1"><path class="cls-1" d="M21,69.74c.2-4.34,11.38-4.34,11.57,0-.07,4.91-11.49,4.91-11.57,0Zm5.79-4.8a45.47,45.47,0,0,0,5.67-1c-.33.44-.69.89-1,1.33,4.26,3.69,6.84,2.22,7-.39.27-2.92.19-7.1.85-8.76a38,38,0,0,0,2.42-6.82c.29-.8.19-1.45-.74-1.75a77.36,77.36,0,0,0-11.59-3.17l-2.55-1.87h0l-2.54,1.87A77,77,0,0,0,12.65,47.5c-.93.3-1,1-.75,1.75a38.07,38.07,0,0,0,2.43,6.82c.65,1.66.58,5.84.85,8.76.13,2.61,2.71,4.08,7,.39l-1-1.33a46,46,0,0,0,5.68,1Zm0-24.11L7.36,34.18,7.27,15.7C7.47,10.5,13,3.19,17.39,0,13.75.83,9.27,4.75,5.67,10.35a36.73,36.73,0,0,0-2.2,16.11C1.7,25.53.24,26,0,29a19.68,19.68,0,0,0,1.31,7.5,13.58,13.58,0,0,1,1.52,5A2.47,2.47,0,0,0,5,43.71c.3,5.73,1.46,9.61,3,12.6,5.44,9,10.39,19,18.73,18.72,8.34.24,13.29-9.69,18.73-18.72,1.57-3,2.72-6.87,3-12.6a2.48,2.48,0,0,0,2.22-2.19,13.39,13.39,0,0,1,1.52-5A19.68,19.68,0,0,0,53.6,29c-.24-3-1.7-3.51-3.47-2.58a36.73,36.73,0,0,0-2.2-16.11C44.32,4.75,39.85.83,36.2,0c4.4,3.19,9.92,10.5,10.13,15.7l-.09,18.48L26.8,40.83Zm9.61,15.51a53.22,53.22,0,0,0-3.9-6.61,5.21,5.21,0,0,1,2.72,1.63c.39,1.66.79,3.32,1.18,5Zm-9.63,0h0c.93.17,3.79-1.91,6.39-3.68L30.5,58.9a10.54,10.54,0,0,1,4.91,2.72l-6.11-.45c-1.07,1.54-1.82,2.16-2.5,2.13s-1.43-.59-2.5-2.13l-6.12.45A10.62,10.62,0,0,1,23.1,58.9l-2.7-6.21c2.6,1.77,5.45,3.85,6.38,3.68Zm-9.59,0q.58-2.49,1.18-5a5.21,5.21,0,0,1,2.72-1.63A53.22,53.22,0,0,0,17.19,56.34Z"/><text class="cls-2" transform="translate(5.51 84.5) scale(0.95 1)">GESTURE</text><text class="cls-3" transform="translate(7.23 92.89) scale(1.06 1)">RESEARCH</text><rect class="cls-4" x="4.55" y="85.17" width="42.83" height="0.45"/></g></g></svg>